# xmcd
#
# Track frame offsets: 
#        150
#        12610
#        26467
#        38220
#        51680
#        65042
#        74867
#        84350
#        97935
#        112022
#        126877
#        139072
#        150197
#        162957
#        177362
#        190830
#        202740
#        218397
#        233175
#        246867
#        259697
#
# Disc length: 3638 seconds
#
# Revision: 3
# Processed by: cddbd v1.5.2PL0 Copyright (c) Steve Scherf et al.
# Submitted via: ExactAudioCopy v0.99pb4
#
DISCID=270e3415
DTITLE=Howlin' Wolf - Memphis Days - the Definitive Edition Vol 1
DYEAR=1989
DGENRE=Blues
TTITLE0=Oh Red (take 1)
TTITLE1=My Last Affair (take 1)
TTITLE2=Come Back Home (take 1)
TTITLE3=California Boogie
TTITLE4=California Blues
TTITLE5=Look-A-Here Baby
TTITLE6=Smile At Me
TTITLE7=My Baby Walked Off
TTITLE8=Drinkin' CV Wine (CV Wine Blues)
TTITLE9=My Troubles and Me
TTITLE10=Chocolate Drop
TTITLE11=Mr. Highway Man (Cadillac Daddy)
TTITLE12=Bluebird Blues
TTITLE13=Color and Kind
TTITLE14=(Everybody's) In the Mood
TTITLE15=Dorothy Mae (number 2)
TTITLE16=I Got a Woman/Sweet Woman
TTITLE17=Decoration Day Blues
TTITLE18=(Well) That's All Right
TTITLE19=How Many More Years
TTITLE20=Baby Ride With Me (Ridin' In the Moonlight)
EXTD=Bear Family Records LC5197
EXTT0=
EXTT1=
EXTT2=
EXTT3=
EXTT4=
EXTT5=
EXTT6=
EXTT7=
EXTT8=
EXTT9=
EXTT10=
EXTT11=
EXTT12=
EXTT13=
EXTT14=
EXTT15=
EXTT16=
EXTT17=
EXTT18=
EXTT19=
EXTT20=
PLAYORDER=
